  <svg width="64" height="64" viewBox="0 0 64 64" fill="none"
                                xmlns="http://www.w3.org/2000/svg">
                                <path
                                    d="M58.5867 48.88C58.5867 49.84 58.3733 50.8267 57.92 51.7867C57.4667 52.7467 56.88 53.6534 56.1067 54.5067C54.8 55.9467 53.36 56.9867 51.7333 57.6534C50.1333 58.32 48.4 58.6667 46.5333 58.6667C43.8133 58.6667 40.9067 58.0267 37.84 56.72C34.7733 55.4134 31.7067 53.6534 28.6667 51.44C25.6 49.2 22.6933 46.72 19.92 43.9734C17.1733 41.2 14.6933 38.2934 12.48 35.2534C10.2933 32.2134 8.53333 29.1734 7.25333 26.16C5.97333 23.12 5.33333 20.2134 5.33333 17.44C5.33333 15.6267 5.65333 13.8934 6.29333 12.2934C6.93333 10.6667 7.94667 9.17337 9.36 7.84004C11.0667 6.16004 12.9333 5.33337 14.9067 5.33337C15.6533 5.33337 16.4 5.49337 17.0667 5.81337C17.76 6.13337 18.3733 6.61337 18.8533 7.30671L25.04 16.0267C25.52 16.6934 25.8667 17.3067 26.1067 17.8934C26.3467 18.4534 26.48 19.0134 26.48 19.52C26.48 20.16 26.2933 20.8 25.92 21.4134C25.5733 22.0267 25.0667 22.6667 24.4267 23.3067L22.4 25.4134C22.1067 25.7067 21.9733 26.0534 21.9733 26.48C21.9733 26.6934 22 26.88 22.0533 27.0934C22.1333 27.3067 22.2133 27.4667 22.2667 27.6267C22.7467 28.5067 23.5733 29.6534 24.7467 31.04C25.9467 32.4267 27.2267 33.84 28.6133 35.2534C30.0533 36.6667 31.44 37.9734 32.8533 39.1734C34.24 40.3467 35.3867 41.1467 36.2933 41.6267C36.4267 41.68 36.5867 41.76 36.7733 41.84C36.9867 41.92 37.2 41.9467 37.44 41.9467C37.8933 41.9467 38.24 41.7867 38.5333 41.4934L40.56 39.4934C41.2267 38.8267 41.8667 38.32 42.48 38C43.0933 37.6267 43.7067 37.44 44.3733 37.44C44.88 37.44 45.4133 37.5467 46 37.7867C46.5867 38.0267 47.2 38.3734 47.8667 38.8267L56.6933 45.0934C57.3867 45.5734 57.8667 46.1334 58.16 46.8C58.4267 47.4667 58.5867 48.1334 58.5867 48.88Z"
                                    stroke="#FF6C58" stroke-width="1.5" stroke-miterlimit="10" />
                                <path
                                    d="M49.3333 24.0001C49.3333 22.4001 48.08 19.9467 46.2133 17.9467C44.5067 16.1067 42.24 14.6667 40 14.6667"
                                    stroke="#FF6C58" stroke-width="1.5" stroke-linecap="round"
                                    stroke-linejoin="round" />
                                <path d="M58.6667 24C58.6667 13.68 50.32 5.33337 40 5.33337" stroke="#FF6C58"
                                    stroke-width="1.5" stroke-linecap="round" stroke-linejoin="round" />
                            </svg>